<svg width="158" height="143" viewBox="0 0 158 143" fill="none" xmlns="http://www.w3.org/2000/svg">
<path d="M76.7605 115V99.4186H80.3211V102.016H80.4834C80.7674 101.116 81.2543 100.423 81.9441 99.936C82.6407 99.4423 83.4353 99.1955 84.328 99.1955C84.5309 99.1955 84.7574 99.2056 85.0077 99.2259C85.2647 99.2394 85.4777 99.2631 85.6467 99.2969V102.675C85.4912 102.621 85.2444 102.573 84.9062 102.533C84.5749 102.486 84.2536 102.462 83.9425 102.462C83.273 102.462 82.6711 102.607 82.1369 102.898C81.6094 103.182 81.1935 103.578 80.8892 104.085C80.5848 104.592 80.4327 105.177 80.4327 105.84V115H76.7605Z" fill="white"/>
<path d="M66.7255 115.304C65.1633 115.304 63.8141 114.98 62.678 114.33C61.5486 113.675 60.6796 112.748 60.0709 111.551C59.4623 110.347 59.158 108.93 59.158 107.301C59.158 105.698 59.4623 104.291 60.0709 103.081C60.6863 101.863 61.5452 100.917 62.6475 100.24C63.7499 99.5573 65.0449 99.2158 66.5327 99.2158C67.493 99.2158 68.3992 99.3713 69.2514 99.6824C70.1102 99.9867 70.8677 100.46 71.5236 101.103C72.1864 101.745 72.7071 102.563 73.0858 103.557C73.4645 104.545 73.6539 105.722 73.6539 107.088V108.214H60.8825V105.738H70.1339C70.1271 105.035 69.975 104.41 69.6774 103.862C69.3798 103.307 68.9639 102.871 68.4297 102.553C67.9022 102.235 67.2868 102.076 66.5835 102.076C65.8328 102.076 65.1734 102.259 64.6054 102.624C64.0373 102.983 63.5943 103.456 63.2765 104.044C62.9654 104.626 62.8065 105.265 62.7997 105.962V108.122C62.7997 109.028 62.9654 109.806 63.2968 110.455C63.6281 111.098 64.0914 111.592 64.6865 111.936C65.2816 112.275 65.9782 112.444 66.7762 112.444C67.3105 112.444 67.794 112.369 68.2268 112.221C68.6596 112.065 69.0349 111.838 69.3528 111.541C69.6706 111.243 69.9107 110.875 70.073 110.435L73.5017 110.821C73.2853 111.727 72.8728 112.518 72.2642 113.194C71.6623 113.864 70.8913 114.385 69.9513 114.757C69.0113 115.122 67.936 115.304 66.7255 115.304Z" fill="white"/>
<path d="M47.5531 110.111L47.543 105.678H48.1313L53.7309 99.4186H58.0219L51.134 107.088H50.3732L47.5531 110.111ZM44.2056 115V94.2249H47.8777V115H44.2056ZM53.9845 115L48.9124 107.909L51.3876 105.323L58.3769 115H53.9845Z" fill="white"/>
<path d="M34.5154 115.304C32.96 115.304 31.6243 114.963 30.5085 114.28C29.3994 113.597 28.5439 112.653 27.942 111.45C27.3469 110.239 27.0493 108.846 27.0493 107.27C27.0493 105.688 27.3536 104.291 27.9623 103.081C28.5709 101.863 29.4298 100.917 30.5389 100.24C31.6547 99.5573 32.9735 99.2158 34.4951 99.2158C35.7597 99.2158 36.879 99.4491 37.8528 99.9157C38.8334 100.376 39.6145 101.028 40.1961 101.874C40.7777 102.712 41.1091 103.693 41.1902 104.815H37.6804C37.5383 104.065 37.2002 103.439 36.6659 102.939C36.1384 102.431 35.4317 102.178 34.5458 102.178C33.7952 102.178 33.1358 102.381 32.5677 102.786C31.9996 103.185 31.5567 103.76 31.2388 104.511C30.9277 105.262 30.7722 106.161 30.7722 107.209C30.7722 108.271 30.9277 109.184 31.2388 109.948C31.5499 110.706 31.9861 111.291 32.5474 111.703C33.1155 112.109 33.7816 112.312 34.5458 112.312C35.0868 112.312 35.5704 112.21 35.9964 112.007C36.4292 111.798 36.7911 111.497 37.0818 111.105C37.3726 110.712 37.5721 110.236 37.6804 109.674H41.1902C41.1023 110.777 40.7777 111.754 40.2164 112.606C39.6551 113.451 38.8909 114.114 37.9238 114.594C36.9567 115.068 35.8206 115.304 34.5154 115.304Z" fill="white"/>
<path d="M20.2704 115V99.4186H23.9425V115H20.2704ZM22.1166 97.2072C21.535 97.2072 21.0346 97.0145 20.6153 96.629C20.196 96.2368 19.9863 95.7668 19.9863 95.219C19.9863 94.6644 20.196 94.1944 20.6153 93.8089C21.0346 93.4167 21.535 93.2206 22.1166 93.2206C22.705 93.2206 23.2054 93.4167 23.6179 93.8089C24.0372 94.1944 24.2469 94.6644 24.2469 95.219C24.2469 95.7668 24.0372 96.2368 23.6179 96.629C23.2054 97.0145 22.705 97.2072 22.1166 97.2072Z" fill="white"/>
<path d="M2.04907 115V94.2249H9.83975C11.4358 94.2249 12.7748 94.5224 13.8568 95.1175C14.9456 95.7127 15.7673 96.5309 16.3218 97.5724C16.8832 98.6071 17.1638 99.7838 17.1638 101.103C17.1638 102.435 16.8832 103.618 16.3218 104.653C15.7605 105.688 14.9321 106.503 13.8365 107.098C12.741 107.686 11.3918 107.98 9.78903 107.98H4.62568V104.886H9.28183C10.2151 104.886 10.9793 104.724 11.5744 104.399C12.1695 104.075 12.6091 103.628 12.8931 103.06C13.1839 102.492 13.3293 101.84 13.3293 101.103C13.3293 100.365 13.1839 99.7162 12.8931 99.1549C12.6091 98.5936 12.1661 98.1574 11.5643 97.8463C10.9691 97.5285 10.2016 97.3695 9.26154 97.3695H5.81254V115H2.04907Z" fill="white"/>
<path d="M75.4291 92.3043C73.8669 92.3043 72.5177 91.9797 71.3816 91.3305C70.2522 90.6745 69.3832 89.748 68.7745 88.551C68.1659 87.3472 67.8616 85.9304 67.8616 84.3006C67.8616 82.6978 68.1659 81.2912 68.7745 80.0807C69.39 78.8634 70.2488 77.9166 71.3512 77.2403C72.4535 76.5573 73.7485 76.2158 75.2363 76.2158C76.1967 76.2158 77.1029 76.3713 77.955 76.6824C78.8138 76.9867 79.5713 77.4601 80.2272 78.1026C80.89 78.745 81.4107 79.5633 81.7894 80.5574C82.1682 81.5448 82.3575 82.7215 82.3575 84.0876V85.2136H69.5861V82.7384H78.8375C78.8307 82.0351 78.6786 81.4095 78.381 80.8618C78.0835 80.3072 77.6676 79.871 77.1333 79.5532C76.6058 79.2353 75.9904 79.0764 75.2871 79.0764C74.5364 79.0764 73.877 79.259 73.309 79.6242C72.7409 79.9826 72.2979 80.456 71.9801 81.0444C71.669 81.626 71.5101 82.265 71.5033 82.9616V85.1223C71.5033 86.0285 71.669 86.8062 72.0004 87.4554C72.3317 88.0979 72.795 88.5916 73.3901 88.9365C73.9852 89.2746 74.6818 89.4437 75.4798 89.4437C76.0141 89.4437 76.4976 89.3693 76.9304 89.2205C77.3632 89.065 77.7386 88.8384 78.0564 88.5409C78.3743 88.2433 78.6143 87.8747 78.7766 87.4352L82.2054 87.8206C81.9889 88.7268 81.5764 89.5181 80.9678 90.1944C80.3659 90.8639 79.5949 91.3846 78.6549 91.7565C77.7149 92.1217 76.6396 92.3043 75.4291 92.3043Z" fill="white"/>
<path d="M61.0829 92V76.4186H64.755V92H61.0829ZM62.9291 74.2072C62.3475 74.2072 61.8471 74.0145 61.4278 73.629C61.0085 73.2368 60.7988 72.7668 60.7988 72.219C60.7988 71.6644 61.0085 71.1944 61.4278 70.8089C61.8471 70.4167 62.3475 70.2206 62.9291 70.2206C63.5175 70.2206 64.0179 70.4167 64.4304 70.8089C64.8497 71.1944 65.0594 71.6644 65.0594 72.219C65.0594 72.7668 64.8497 73.2368 64.4304 73.629C64.0179 74.0145 63.5175 74.2072 62.9291 74.2072Z" fill="white"/>
<path d="M58.5418 76.4186L52.993 92H48.9353L43.3865 76.4186H47.3021L50.883 87.9931H51.0453L54.6363 76.4186H58.5418Z" fill="white"/>
<path d="M34.5711 92.3043C33.0494 92.3043 31.7307 91.9696 30.6148 91.3001C29.499 90.6305 28.6334 89.6939 28.018 88.4901C27.4093 87.2864 27.105 85.8797 27.105 84.2702C27.105 82.6607 27.4093 81.2506 28.018 80.0401C28.6334 78.8296 29.499 77.8895 30.6148 77.22C31.7307 76.5505 33.0494 76.2158 34.5711 76.2158C36.0927 76.2158 37.4114 76.5505 38.5273 77.22C39.6431 77.8895 40.5054 78.8296 41.114 80.0401C41.7294 81.2506 42.0371 82.6607 42.0371 84.2702C42.0371 85.8797 41.7294 87.2864 41.114 88.4901C40.5054 89.6939 39.6431 90.6305 38.5273 91.3001C37.4114 91.9696 36.0927 92.3043 34.5711 92.3043ZM34.5913 89.3625C35.4164 89.3625 36.1062 89.136 36.6607 88.6829C37.2153 88.223 37.6278 87.6076 37.8983 86.8366C38.1756 86.0657 38.3142 85.2068 38.3142 84.26C38.3142 83.3065 38.1756 82.4442 37.8983 81.6733C37.6278 80.8956 37.2153 80.2768 36.6607 79.8169C36.1062 79.3571 35.4164 79.1271 34.5913 79.1271C33.746 79.1271 33.0427 79.3571 32.4814 79.8169C31.9268 80.2768 31.5109 80.8956 31.2336 81.6733C30.9631 82.4442 30.8279 83.3065 30.8279 84.26C30.8279 85.2068 30.9631 86.0657 31.2336 86.8366C31.5109 87.6076 31.9268 88.223 32.4814 88.6829C33.0427 89.136 33.746 89.3625 34.5913 89.3625Z" fill="white"/>
<path d="M2.04907 71.2249H6.6545L12.8221 86.2787H13.0656L19.2332 71.2249H23.8386V92H20.2273V77.7272H20.0346L14.293 91.9391H11.5947L5.85312 77.6968H5.66038V92H2.04907V71.2249Z" fill="white"/>
<path d="M79.0659 41.3771C84.5205 39.489 90.389 39.1347 96.0313 40.3522C101.674 41.5697 106.874 44.3122 111.065 48.2816C115.256 52.2509 118.276 57.2949 119.798 62.8628C121.319 68.4309 121.284 74.3102 119.694 79.8592C118.105 85.4083 115.022 90.415 110.783 94.3329C106.544 98.2506 101.311 100.93 95.6543 102.079L89.3802 71.1758L58.183 66.5861C59.0231 60.8753 61.4147 55.5042 65.0971 51.059C68.7794 46.614 73.6113 43.2651 79.0659 41.3771ZM97.6628 72.981C94.7939 72.1639 92.0727 74.6606 92.6406 77.589L95.1085 90.3156C95.7042 93.3861 99.435 94.6154 101.74 92.5008L111.739 83.3256C114.043 81.2108 113.138 77.3883 110.13 76.5315L97.6628 72.981ZM111.98 56.5548C111.089 53.5567 107.255 52.6951 105.167 55.0239L96.5145 64.676C94.5231 66.897 95.5758 70.4375 98.4571 71.2097L110.978 74.5661C113.999 75.3758 116.739 72.5603 115.848 69.5623L111.98 56.5548ZM88.7222 44.9953C85.7909 44.4426 83.3082 47.177 84.14 50.0415L87.7561 62.4909C88.6288 65.4943 92.455 66.3791 94.5577 64.0637L103.681 54.0172C105.783 51.7016 104.535 47.977 101.461 47.3973L88.7222 44.9953ZM82.301 49.9209C81.3926 46.9279 77.5545 46.0887 75.4796 48.4293L66.4781 58.5835C64.4033 60.924 65.6962 64.633 68.7762 65.1762L81.5435 67.4262C84.4811 67.9437 86.9309 65.1801 86.0648 62.3257L82.301 49.9209Z" fill="white"/>
</svg>
